# xmcd
#
# Track frame offsets: 
#        150
#        15010
#        34875
#        52130
#        71207
#        88227
#        100242
#        117637
#        135465
#        148347
#        165292
#        179345
#
# Disc length: 2541 seconds
#
# Revision: 0
# Processed by: cddbd v1.4PL0 Copyright (c) Steve Scherf et al.
# Submitted via: ExactAudioCopy v0.90b3
#
DISCID=aa09eb0c
DTITLE=The Domino Kings - The Back of Your Mind
DYEAR=2002
DGENRE=
TTITLE0=The Back of Your Mind
TTITLE1=Hard Thing to Know
TTITLE2=Sad Side of Town
TTITLE3=No More Trying
TTITLE4=I Fell
TTITLE5=Show Me
TTITLE6=The Outlaw's Song
TTITLE7=Either Way
TTITLE8=Wine Me Up
TTITLE9=What Do you Do About the Ring
TTITLE10=One More Chance
TTITLE11=In Case You Didn't Know
EXTD=
EXTT0=
EXTT1=
EXTT2=
EXTT3=
EXTT4=
EXTT5=
EXTT6=
EXTT7=
EXTT8=
EXTT9=
EXTT10=
EXTT11=
PLAYORDER=
